<svg xmlns="http://www.w3.org/2000/svg" viewBox="0 0 192 192" role="img" aria-label="Castefy logo">
  <defs>
    <linearGradient id="g" x1="0" x2="1" y1="0" y2="1">
      <stop offset="0%" stop-color="#f97316" />
      <stop offset="100%" stop-color="#fb923c" />
    </linearGradient>
  </defs>
  <rect width="192" height="192" rx="32" fill="url(#g)" />
  <path fill="white" d="M52 72c0-11 9-20 20-20h48c11 0 20 9 20 20v48c0 11-9 20-20 20H72c-11 0-20-9-20-20V72Zm34 0c-6 0-10 5-10 10v28c0 6 4 10 10 10h20c6 0 10-4 10-10V82c0-5-4-10-10-10H86Z" opacity="0.9" />
  <circle cx="96" cy="96" r="10" fill="#fff" />
</svg>
