<svg xmlns="http://www.w3.org/2000/svg" viewBox="0 0 512 512" role="img" aria-label="Castefy logo large">
  <defs>
    <linearGradient id="g2" x1="0" x2="1" y1="0" y2="1">
      <stop offset="0%" stop-color="#f97316" />
      <stop offset="100%" stop-color="#fb923c" />
    </linearGradient>
  </defs>
  <rect width="512" height="512" rx="96" fill="url(#g2)" />
  <path fill="white" d="M140 190c0-31 25-56 56-56h120c31 0 56 25 56 56v132c0 31-25 56-56 56H196c-31 0-56-25-56-56V190Zm96 0c-16 0-28 12-28 28v76c0 16 12 28 28 28h40c16 0 28-12 28-28v-76c0-16-12-28-28-28h-40Z" opacity="0.9" />
  <circle cx="256" cy="256" r="28" fill="#fff" />
</svg>
